<svg viewBox="0 0 60.55 60.55" xmlns="http://www.w3.org/2000/svg"><path d="m43.21 45.11-2.05 2.06-1.44.49-9.72 3.34-9.7 3.3-9.63 3.3-8.61 2.95h-2.06v-2.06l1.76-4.23 2.5-6 2.51-6 2.68-6.46 2.32-5.56 2.5-6 1.16-2.78 2.06-2.06z" fill="#d69651"/><g fill="#c78640"><path d="m20.3 54.3-9.63 3.3-8.91-3.34 2.5-6z"/><path d="m39.72 47.66-9.72 3.34-23.23-8.75 2.68-6.45z"/><path d="m38.27 40.17-26.5-9.93 2.5-6 12.89 4.83z"/></g><path d="m22.64 18.36 4.3-4.3a2.87 2.87 0 0 0 .84-2 2.9 2.9 0 0 0 -1.78-2.68l-2.64-1.14a11.41 11.41 0 0 1 -4.6-3.62l-1.27-1.69 3.09-2.06a10.79 10.79 0 0 0 5.57 4.26l1.23.41a6.6 6.6 0 0 1 2.93 10.56l-4.59 5.35z" fill="#ffc431"/><path d="m37 13.22-1-6.22 6.18 2.1z" fill="#d1e4ff"/><path d="m30.63 2.9.5-2 4.12 1-.5 2z" fill="#fb6a83"/><path d="m40.58 2.06 3.09-2.06 1.14 1.71-3.08 2.06z" fill="#ffc431"/><path d="m16.49 9.34 2-.5 1 4.11-2 .5z" fill="#6173e8"/><path d="m42.18 37.91 4.31-4.3a2.87 2.87 0 0 1 4.67.9l1.15 2.68a11.35 11.35 0 0 0 3.61 4.59l1.7 1.27 2.06-3.05a10.8 10.8 0 0 1 -4.26-5.58l-.42-1.25a6.6 6.6 0 0 0 -10.56-2.93l-5.34 4.58z" fill="#6173e8"/><path d="m50.42 24.53 6.17 1-2.06-6.17z" fill="#ffc431"/><path d="m56.62 28.87 2-.5 1 4.11-2 .5z" fill="#fb6a83"/><path d="m56.78 18.83 2.06-3.09 1.71 1.14-2.06 3.12z" fill="#d1e4ff"/><path d="m47.1 43.05.5-2 4.11 1-.5 2z" fill="#6173e8"/><path d="m29.84 26.59 4.1-4.78a8 8 0 0 1 5.23-2.81h.12a8.41 8.41 0 0 0 7.28-6.53 5.8 5.8 0 0 1 4.12-4.32l8-2.17 1 4.12-5.57 1.24a5.79 5.79 0 0 0 -4.42 4.53v.15a8.8 8.8 0 0 1 -7.78 7.07h-.12a9 9 0 0 0 -6.06 3.2l-2.78 3.34z" fill="#fb6a83"/></svg>